<svg width="496" height="350" xmlns="http://www.w3.org/2000/svg">
 <g>
  <title>Layer 1</title>
  <path fill="#fff" stroke="#000" id="svg_7" d="m141.07332,16c0,0 -27,-17 -28,-14c-1,3 -2.31075,7.08025 -3,10c-1.02748,4.3525 -2.49345,6.87856 -3,10c-0.48055,2.96127 0,5 0,7c0,2 0,3 0,5c0,2 0,3 0,4c0,2 -0.4588,2.69344 -1,4c-0.76537,1.84776 0.38269,4.07612 0,5c-0.5412,1.30656 -0.5405,3.0535 -1,5c-0.51375,2.17625 -1.5405,5.0535 -2,7c-0.51375,2.17625 -1.4588,3.69344 -2,5c-0.76537,1.84776 -0.61731,3.07613 -1,4c-0.5412,1.30656 -2,2 -2,3c0,1 -1,1 -1,2c0,0 -3.51929,4.5582 -6,8c-2.6149,3.62799 -4.4588,5.69344 -5,7c-0.38269,0.92387 0.70711,1.29289 0,2c-0.70711,0.70711 -1,1 -3,3c-2,2 -4.186,4.69255 -6,6c-1.14726,0.8269 -1,2 -1,2c-1,0 -1,1 -1,1c-10,3 -14.69344,5.4588 -16,6c-0.92387,0.38269 -1,0 -1,1c0,0 0,0 0,0c-1,0 -1,0 -1,0c0,-1 0,-2 0,-3c0,-2 0,-4 0,-4c0,-1 0,-2 0,-2c1,-1 1,-1 1,-1c0,0 0,-1 0,-1c0,0 1,0 1,0c0,1 -3,4 -5,7c-2,3 -4.42824,6.42336 -9,12c-3.58638,4.37468 -6.72962,9.22885 -11,14c-2.82951,3.16132 -5.87181,7.08954 -8,10c-3.77946,5.16872 -6.87181,9.08954 -9,12c-3.77946,5.16872 -7,9 -9,12c-2,3 -4.14429,5.93414 -5,8c-1.21015,2.92157 -2.49829,4.93796 -3,11c-0.16496,1.99318 0,6 0,8c0,3 0,5 0,8c0,2 0.48626,4.82376 1,7c0.91901,3.89301 -0.0557,7.39221 3,14c1.51337,3.27258 3.63297,7.198 7,13c3.61945,6.23697 8,13 12,18c4,5 9.26365,10.86548 15,15c5.44198,3.92236 14.93813,8.07858 20,12c3.95265,3.0621 6.86829,6.28857 11,8c2.92157,1.21014 5.80565,2.44839 10,4c3.867,1.43048 6.87856,1.49347 10,2c1.97418,0.32037 5.01796,-0.90359 16,-3c10.01715,-1.9122 18.02206,-3.83704 26,-5c6.01915,-0.87741 12,-1 16,-1c5,0 10.22935,2.33197 14,4c3.29733,1.45865 7.186,3.69254 9,5c1.14726,0.8269 2.513,1.59399 4,4c1.66251,2.69 2.19028,5.88153 4,9c1.12234,1.93399 4.05664,5.91754 7,8c4.0817,2.88785 10.16238,5.64636 17,9c9.24365,4.53375 18.09317,9.79663 27,14c14.15536,6.68027 21.76999,9.91501 32,12c8.87299,1.80841 16,1 24,1c6,0 11,-2 14,-5c2,-2 3,-5 3,-8c0,-3 0,-6 0,-8c0,-2 0,-3 0,-4c0,-1 0,-1 0,-1c0,0 0,0 -1,1c0,0 -1,0 -1,0c0,0 -1,0 -1,0c0,0 -0.06186,-1.07858 5,-5c7.9053,-6.12424 14.34525,-9.29672 21,-13c10.66623,-5.93561 16.06134,-8.82462 22,-11c5.05658,-1.85226 9.0535,-2.5405 11,-3c2.17624,-0.51373 3.82376,-1.48627 6,-2c1.9465,-0.4595 5,-1 7,-1c2,0 5,-1 8,-2c3,-1 6,-2 8,-4c1,-1 1,-2 2,-3c0,0 -1,0 -1,0c0,1 -0.29291,1.29291 -1,2c-0.70709,0.70709 -1,0 -1,0c0,0 0,-1 0,-1c0,-3 1.95328,-4.07193 5,-6c14.78165,-9.35428 32.72672,-21.45917 56,-35c8.89899,-5.17761 20.88049,-10.25195 27,-13c4.91254,-2.20605 8.07843,-3.78986 11,-5c2.06586,-0.85571 3.88153,-3.19028 7,-5c1.93402,-1.12234 3,-1 4,-2c0,0 0,0 0,-1c0,0 -1.89349,-1.19669 -11,-6c-9.88904,-5.21606 -17.19104,-9.74283 -24,-15c-6.18201,-4.77312 -8.41364,-6.62532 -12,-11c-2.28589,-2.78833 -5.31024,-5.71899 -8,-9c-2.28589,-2.78833 -6.87857,-6.49345 -10,-7c-2.96127,-0.48055 -6.02676,-0.77025 -7,-1c-2.17624,-0.51375 -2.61731,-2.07613 -3,-3c-0.5412,-1.30656 -1,-2 -1,-2c-3,-5 -7.36414,-9.66635 -11,-14c-7.84558,-9.3513 -14.2709,-18.90358 -17,-27c-3.33481,-9.89339 -5.56241,-18.84825 -8,-29c-2.61038,-10.87134 -4.99246,-22.81557 -6,-31c-1.34402,-10.91758 -0.3765,-17.24612 3,-22c4.52261,-6.36756 10,-11 16,-16c6,-5 10.83771,-6.83772 14,-10c1.58115,-1.58114 2.31622,-4.05132 2,-5c-1.58115,-4.74342 -13,-7 -27,-7c-18,0 -33.09726,1.62929 -49,6c-20.13403,5.53364 -30.12396,8.54169 -42,12c-9.10849,2.6524 -17.93365,4.36646 -28,6c-7.95816,1.29143 -14.06082,0.6407 -21,2c-4.0462,0.7926 -9,2 -14,2c-3,0 -7,0 -10,0c-3,0 -6.17163,1.15913 -10,0c-3.45084,-1.04483 -6,-4 -9,-6c-3,-2 -5.88153,-4.19028 -9,-6c-1.93399,-1.12234 -4,-2 -6,-3c-2,-1 -7.03873,-1.51945 -10,-2c-3.12144,-0.50654 -6,-1 -9,-1c-4,0 -8.01947,-0.39415 -12,0c-5.0742,0.50245 -8.17697,1.34518 -13,3c-2.11504,0.72569 -3,2 -5,2l0,0l0,0l0,0"/>
  <path fill="#fff" d="m70.29562,86.12135c89.33331,-94.77978 178.6666,94.77978 267.99989,0l0,170.60358c-89.33329,94.77979 -178.66658,-94.77977 -267.99989,0l0,-170.60358z" id="svg_3" stroke="#000"/>
  <path id="svg_1" d="m204.29557,274.78598c-41.43646,0 -75,-33.56354 -75,-75c0,-41.43646 33.56354,-75 75,-75c41.43646,0 75,33.56354 75,75c0,41.43646 -33.56354,75 -75,75z" opacity="undefined" stroke="#000" fill="#fff"/>
  <text xml:space="preserve" text-anchor="start" font-family="'Cabin'" font-size="24" id="svg_2" y="150.60843" x="189.03776" stroke-width="0" stroke="#000" fill="#000000">Do</text>
  <text xml:space="preserve" text-anchor="start" font-family="'Cabin'" font-size="24" stroke-width="0" id="svg_8" y="116.60843" x="179.83464" stroke="#000" fill="#000000">Lead</text>
  <text xml:space="preserve" text-anchor="start" font-family="'Cabin'" font-size="24" stroke-width="0" id="svg_9" y="70.60843" x="166.11588" stroke="#000" fill="#000000">Explore</text>
 </g>

</svg>